<svg width="71" height="19" viewBox="0 0 71 19" fill="none" xmlns="http://www.w3.org/2000/svg">
<path d="M12.008 18.264C11.064 18.264 10.208 18.048 9.44 17.616C8.688 17.184 8.096 16.592 7.664 15.84C7.232 15.088 7.016 14.224 7.016 13.248V5.52C7.016 5.232 6.944 4.968 6.8 4.728C6.656 4.488 6.464 4.296 6.224 4.152C5.984 4.008 5.72 3.936 5.432 3.936C5.144 3.936 4.88 4.008 4.64 4.152C4.416 4.296 4.232 4.488 4.088 4.728C3.944 4.968 3.872 5.232 3.872 5.52V18H0.44V5.928C0.44 5 0.648 4.16 1.064 3.408C1.48 2.656 2.064 2.056 2.816 1.608C3.568 1.144 4.44 0.912 5.432 0.912C6.44 0.912 7.32 1.144 8.072 1.608C8.824 2.056 9.408 2.656 9.824 3.408C10.24 4.16 10.448 5 10.448 5.928V13.656C10.448 13.944 10.52 14.208 10.664 14.448C10.808 14.688 10.992 14.88 11.216 15.024C11.456 15.168 11.72 15.24 12.008 15.24C12.296 15.24 12.56 15.168 12.8 15.024C13.04 14.88 13.232 14.688 13.376 14.448C13.52 14.208 13.592 13.944 13.592 13.656V5.928C13.592 5 13.8 4.16 14.216 3.408C14.632 2.656 15.216 2.056 15.968 1.608C16.736 1.144 17.616 0.912 18.608 0.912C19.616 0.912 20.488 1.144 21.224 1.608C21.976 2.056 22.56 2.656 22.976 3.408C23.392 4.16 23.6 5 23.6 5.928V18H20.168V5.52C20.168 5.232 20.096 4.968 19.952 4.728C19.824 4.488 19.64 4.296 19.4 4.152C19.16 4.008 18.896 3.936 18.608 3.936C18.32 3.936 18.056 4.008 17.816 4.152C17.576 4.296 17.384 4.488 17.24 4.728C17.096 4.968 17.024 5.232 17.024 5.52V13.248C17.024 14.224 16.8 15.088 16.352 15.84C15.92 16.592 15.328 17.184 14.576 17.616C13.824 18.048 12.968 18.264 12.008 18.264ZM42.4854 18V8.568H40.3494V5.76H42.4854V3.96C42.4854 2.872 42.7894 2.024 43.3974 1.416C44.0214 0.791999 44.8774 0.48 45.9654 0.48H49.4454V3.288H46.5414C46.3334 3.288 46.1494 3.36 45.9894 3.504C45.8454 3.648 45.7734 3.832 45.7734 4.056V5.76H48.9174V8.568H45.7734V18H42.4854ZM63.6241 18.288C62.6001 18.288 61.6801 18.128 60.8641 17.808C60.0641 17.472 59.3921 17.008 58.8481 16.416C58.3041 15.808 57.8881 15.104 57.6001 14.304C57.3121 13.488 57.1681 12.6 57.1681 11.64C57.1681 10.424 57.4081 9.36 57.8881 8.448C58.3841 7.52 59.0721 6.792 59.9521 6.264C60.8481 5.736 61.8881 5.472 63.0721 5.472C63.5841 5.472 64.0721 5.544 64.5361 5.688C65.0161 5.832 65.4481 6.04 65.8321 6.312C66.2161 6.584 66.5281 6.904 66.7681 7.272H66.7921V0.48H70.0801V11.64C70.0801 12.984 69.8161 14.16 69.2881 15.168C68.7601 16.16 68.0161 16.928 67.0561 17.472C66.0961 18.016 64.9521 18.288 63.6241 18.288ZM63.6241 15.48C64.2801 15.48 64.8401 15.32 65.3041 15C65.7681 14.68 66.1201 14.248 66.3601 13.704C66.6161 13.16 66.7441 12.552 66.7441 11.88C66.7441 11.208 66.6161 10.6 66.3601 10.056C66.1201 9.512 65.7681 9.08 65.3041 8.76C64.8401 8.44 64.2801 8.28 63.6241 8.28C62.9841 8.28 62.4241 8.44 61.9441 8.76C61.4801 9.08 61.1201 9.512 60.8641 10.056C60.6241 10.6 60.5041 11.208 60.5041 11.88C60.5041 12.552 60.6241 13.16 60.8641 13.704C61.1201 14.248 61.4801 14.68 61.9441 15C62.4241 15.32 62.9841 15.48 63.6241 15.48Z" fill="white"/>
<path d="M32.5751 18.288C31.3271 18.288 30.2551 18.04 29.3591 17.544C28.4631 17.048 27.7751 16.384 27.2951 15.552C26.8311 14.72 26.5991 13.8 26.5991 12.792V5.76H29.8871V12.792C29.8871 13.288 30.0071 13.744 30.2471 14.16C30.4871 14.56 30.8071 14.88 31.2071 15.12C31.6231 15.36 32.0791 15.48 32.5751 15.48C33.0711 15.48 33.5191 15.36 33.9191 15.12C34.3351 14.88 34.6631 14.56 34.9031 14.16C35.1431 13.744 35.2631 13.288 35.2631 12.792V5.76H38.5511V12.792C38.5511 13.8 38.3111 14.72 37.8311 15.552C37.3671 16.384 36.6871 17.048 35.7911 17.544C34.9111 18.04 33.8391 18.288 32.5751 18.288ZM51.4897 18V5.76H54.8017V18H51.4897ZM53.1457 4.296C52.5857 4.296 52.0977 4.096 51.6817 3.696C51.2817 3.28 51.0817 2.792 51.0817 2.232C51.0817 1.672 51.2817 1.192 51.6817 0.792C52.0977 0.375999 52.5857 0.167999 53.1457 0.167999C53.7057 0.167999 54.1857 0.375999 54.5857 0.792C55.0017 1.192 55.2097 1.672 55.2097 2.232C55.2097 2.792 55.0017 3.28 54.5857 3.696C54.1857 4.096 53.7057 4.296 53.1457 4.296Z" fill="#FFD369"/>
</svg>
