<svg width="24" height="24" viewBox="0 0 24 24" fill="none" xmlns="http://www.w3.org/2000/svg">
<path fill-rule="evenodd" clip-rule="evenodd" d="M2 12.4C2 11.7373 2.53726 11.2 3.2 11.2H20.8C21.4627 11.2 22 11.7373 22 12.4C22 13.0627 21.4627 13.6 20.8 13.6H3.2C2.53726 13.6 2 13.0627 2 12.4Z" fill="#FFD369"/>
<path fill-rule="evenodd" clip-rule="evenodd" d="M12.7515 4.35147C13.2201 3.88284 13.9799 3.88284 14.4485 4.35147L21.6485 11.5515C22.1172 12.0201 22.1172 12.7799 21.6485 13.2485L14.4485 20.4485C13.9799 20.9172 13.2201 20.9172 12.7515 20.4485C12.2828 19.9799 12.2828 19.2201 12.7515 18.7515L19.1029 12.4L12.7515 6.04853C12.2828 5.5799 12.2828 4.8201 12.7515 4.35147Z" fill="#FFD369"/>
</svg>
