<svg width="24" height="24" viewBox="0 0 24 24" fill="none" xmlns="http://www.w3.org/2000/svg">
<path d="M21.9436 11.4012C21.9186 11.3345 21.2101 9.76758 19.6431 8.19228C17.5511 6.10854 14.9089 5 12 5C9.09111 5 6.44894 6.10854 4.35688 8.19228C2.78991 9.76758 2.08144 11.3345 2.05644 11.4012C2.01922 11.4852 2 11.5761 2 11.6679C2 11.7598 2.01922 11.8507 2.05644 11.9347C2.08144 12.0013 2.78991 13.5683 4.35688 15.1436C6.44894 17.2273 9.09111 18.3359 12 18.3359C14.9089 18.3359 17.5511 17.2273 19.6431 15.1436C21.2101 13.5683 21.9186 12.0013 21.9436 11.9347C21.9808 11.8507 22 11.7598 22 11.6679C22 11.5761 21.9808 11.4852 21.9436 11.4012ZM12 8.66737C12.5935 8.66737 13.1736 8.84335 13.667 9.17305C14.1605 9.50276 14.5451 9.97139 14.7722 10.5197C14.9993 11.068 15.0587 11.6713 14.9429 12.2533C14.8271 12.8354 14.5414 13.37 14.1217 13.7897C13.7021 14.2093 13.1674 14.4951 12.5854 14.6109C12.0033 14.7266 11.4 14.6672 10.8517 14.4401C10.3034 14.213 9.83482 13.8284 9.50511 13.335C9.17541 12.8415 8.99943 12.2614 8.99943 11.6679C8.99943 10.8721 9.31556 10.1089 9.87827 9.54621C10.441 8.9835 11.2042 8.66737 12 8.66737Z" fill="white"/>
</svg>
